<svg xmlns="http://www.w3.org/2000/svg" width="1024" height="1024" viewBox="0 0 1024 1024">
  <defs>
    <linearGradient id="background" x1="148" y1="116" x2="876" y2="900" gradientUnits="userSpaceOnUse">
      <stop offset="0" stop-color="#223331"/>
      <stop offset="1" stop-color="#111c1b"/>
    </linearGradient>
    <linearGradient id="fold" x1="318" y1="260" x2="734" y2="764" gradientUnits="userSpaceOnUse">
      <stop offset="0" stop-color="#fff8e9"/>
      <stop offset="0.58" stop-color="#e7dcc8"/>
      <stop offset="1" stop-color="#cdbd9e"/>
    </linearGradient>
    <linearGradient id="accent" x1="246" y1="248" x2="754" y2="776" gradientUnits="userSpaceOnUse">
      <stop offset="0" stop-color="#f4c66f"/>
      <stop offset="1" stop-color="#c9823f"/>
    </linearGradient>
    <filter id="shadow" x="120" y="116" width="784" height="824" filterUnits="userSpaceOnUse">
      <feDropShadow dx="0" dy="34" stdDeviation="32" flood-color="#000000" flood-opacity="0.28"/>
    </filter>
  </defs>
  <rect width="1024" height="1024" rx="224" fill="url(#background)"/>
  <path d="M226 286c0-45 36-82 82-82h408c45 0 82 37 82 82v452c0 45-37 82-82 82H308c-46 0-82-37-82-82V286Z" fill="#2e4441"/>
  <g filter="url(#shadow)">
    <path d="M282 268c0-29 24-53 53-53h394c29 0 53 24 53 53v478c0 29-24 53-53 53H335c-29 0-53-24-53-53V268Z" fill="url(#fold)"/>
    <path d="M282 268c0-29 24-53 53-53h125v584H335c-29 0-53-24-53-53V268Z" fill="#fbf0da"/>
    <path d="M460 215h139v584H460V215Z" fill="#efe1c8"/>
    <path d="M599 215h130c29 0 53 24 53 53v478c0 29-24 53-53 53H599V215Z" fill="#d9c8aa"/>
    <path d="M460 215v584" stroke="#cbb997" stroke-width="10"/>
    <path d="M599 215v584" stroke="#b9a581" stroke-width="10"/>
    <path d="M340 322h282" stroke="#31413e" stroke-width="34" stroke-linecap="round"/>
    <path d="M340 394h190" stroke="#b48644" stroke-width="24" stroke-linecap="round"/>
    <path d="M340 664h326" stroke="#31413e" stroke-width="28" stroke-linecap="round"/>
    <path d="M340 724h246" stroke="#6f7c77" stroke-width="22" stroke-linecap="round"/>
    <path d="M624 342c0-20 16-36 36-36h58c20 0 36 16 36 36v118c0 20-16 36-36 36h-58c-20 0-36-16-36-36V342Z" fill="url(#accent)"/>
    <path d="M660 454l31-42 25 30 23-32 15 21v29c0 20-16 36-36 36h-58c-12 0-23-6-29-15l29-27Z" fill="#f9df9d"/>
  </g>
  <text x="512" y="610" text-anchor="middle" font-family="Inter, Arial, Helvetica, sans-serif" font-size="160" font-weight="800" letter-spacing="-2" fill="#1f2a2a">SB</text>
  <path d="M314 842h396" stroke="#efbd62" stroke-width="18" stroke-linecap="round"/>
</svg>
